:SAMPLES-PER-SECOND 30
:FULLY-SPECIFIED
:DEGREES
363
root  -0.660551 39.0258 -4.70231 177.172 -48.6649 175.491
RightUpLeg  -18.4108 -6.92761 -4.12444
RightLeg  -0.796471 -16.6176 6.31136
RightFoot  -3.57394 -0.549862 7.77915
RightToes  0.00048216 0.542163 -0.142577
Spine  10.7107 -1.64112 0.237513
Spine1  12.0888 -1.22077 -2.18577
HEad  -0.0924071 22.0153 -10.6888
LeftShoulder1  8.76236 -13.4204 -45.1224
LeftArm  -12.7452 13.5356 -22.545
LeftForeArm  69.3541 -79.2566 -80.091
LeftHand  -0.25398 0.0180481 5.50724
RightShoulder  5.09821 9.38424 33.6129
RightArm  -12.4225 -27.0404 24.868
RightForeArm  43.8161 76.733 110.923
RightHand  1.3172 -15.5254 -15.6725
LeftUpLeg  16.0902 3.96841 -6.74522
LeftLeg  12.7869 3.40905 -1.19224
LeftFoot  -19.6133 0.499002 5.25675
LeftToes  1.06246e-005 4.65856e-005 -8.18501e-006
364
root  -2.12505 38.6031 -5.73779 176.185 -52.0796 175.026
RightUpLeg  -17.8944 -6.85599 -4.40618
RightLeg  -2.8039 -11.8452 5.8869
RightFoot  -4.49158 -0.555846 8.66812
RightToes  0.00048216 0.542163 -0.142577
Spine  11.3533 -2.13578 0.21114
Spine1  12.3381 -1.82193 -2.00758
HEad  0.599679 20.5017 -10.6439
LeftShoulder1  8.85011 -13.4605 -45.4805
LeftArm  -12.2758 12.9369 -22.9594
LeftForeArm  65.97 -79.1279 -76.7512
LeftHand  -0.25398 0.0180481 5.50724
RightShoulder  4.97722 9.19359 33.256
RightArm  -12.9133 -27.6338 24.6558
RightForeArm  46.1827 76.4354 113.958
RightHand  1.30077 -14.906 -16.4384
LeftUpLeg  20.127 5.13325 -5.56494
LeftLeg  14.2324 -0.757866 -1.65271
LeftFoot  -21.1224 0.569517 5.16342
LeftToes  1.06246e-005 4.65856e-005 -8.18501e-006
365
root  -3.64799 38.247 -6.8222 174.432 -54.9389 175.663
RightUpLeg  -17.7536 -6.51114 -3.9763
RightLeg  0.168676 -9.23342 4.83759
RightFoot  -3.47772 -0.428905 6.08178
RightToes  0.00048216 0.542163 -0.142577
Spine  11.9085 -2.51998 1.06312
Spine1  12.5168 -2.31294 -1.5854
HEad  1.62886 19.4919 -10.7013
LeftShoulder1  8.89079 -13.4582 -45.7036
LeftArm  -11.621 13.1966 -23.4323
LeftForeArm  63.6713 -79.0176 -74.4324
LeftHand  -0.25398 0.0180481 5.50724
RightShoulder  4.84196 8.98871 32.8175
RightArm  -12.9703 -28.0604 24.1905
RightForeArm  47.336 76.226 115.798
RightHand  1.33608 -14.752 -17.1014
LeftUpLeg  24.0197 6.02096 -3.55569
LeftLeg  15.8658 -3.9947 -1.78761
LeftFoot  -21.6004 0.563438 4.84957
LeftToes  1.06246e-005 4.65856e-005 -8.18501e-006
366
root  -5.26826 37.9644 -7.9144 171.976 -56.9136 177.892
RightUpLeg  -18.7907 -7.43257 -2.01717
RightLeg  6.56693 -7.28708 3.29564
RightFoot  1.33707 -0.16558 1.65315
RightToes  0.00048216 0.542163 -0.142577
Spine  11.9554 -2.99313 3.84327
Spine1  12.3622 -2.38443 -2.08875
HEad  2.78605 18.8341 -10.5499
LeftShoulder1  8.88589 -13.4212 -45.7807
LeftArm  -10.8601 14.5501 -23.7757
LeftForeArm  63.4913 -79.0071 -74.1605
LeftHand  -0.25398 0.0180481 5.50724
RightShoulder  4.72145 8.76694 32.5368
RightArm  -12.4351 -28.5445 23.5115
RightForeArm  47.3454 76.1738 116.201
RightHand  1.41714 -15.2206 -17.242
LeftUpLeg  26.6167 5.91688 -1.15797
LeftLeg  18.4054 -5.41915 -1.76962
LeftFoot  -21.2396 0.33435 2.40065
LeftToes  1.06246e-005 4.65856e-005 -8.18501e-006
367
root  -6.94473 37.7415 -8.95034 169.556 -57.8995 -179.176
RightUpLeg  -21.1347 -11.8699 1.50424
RightLeg  14.426 -1.89808 1.11616
RightFoot  6.86216 0.254174 -1.34999
RightToes  0.00048216 0.542163 -0.142577
Spine  11.6 -3.43336 8.05234
Spine1  12.115 -1.90997 -3.66489
HEad  3.68699 18.2536 -10.5649
LeftShoulder1  8.93226 -13.4174 -46.038
LeftArm  -10.2964 16.3624 -23.9176
LeftForeArm  62.8851 -78.9737 -73.5536
LeftHand  -0.25398 0.0180481 5.50724
RightShoulder  4.67928 8.65426 32.546
RightArm  -11.5444 -28.8453 22.6359
RightForeArm  45.4646 76.3671 114.429
RightHand  1.47271 -15.6882 -17.0912
LeftUpLeg  26.5821 5.55929 1.31761
LeftLeg  23.8908 -5.47767 -2.31695
LeftFoot  -18.2922 0.00215272 -2.02436
LeftToes  1.06246e-005 4.65856e-005 -8.18501e-006
368
root  -8.50312 37.5723 -9.91813 167.777 -58.9761 -176.479
RightUpLeg  -23.5867 -14.2353 3.52838
RightLeg  22.0582 0.711329 -0.148258
RightFoot  7.95332 0.536893 -2.87057
RightToes  0.00048216 0.542163 -0.142577
Spine  11.1158 -3.74095 11.4844
Spine1  12.2919 -1.49585 -4.52838
HEad  4.03092 17.5473 -11.1185
LeftShoulder1  9.08677 -13.4874 -46.6584
LeftArm  -10.1129 17.619 -23.9059
LeftForeArm  60.1509 -78.8076 -70.9104
LeftHand  -0.25398 0.0180481 5.50724
RightShoulder  4.7312 8.74922 32.6715
RightArm  -10.7346 -28.5127 21.6519
RightForeArm  41.4147 76.7283 110.606
RightHand  1.45515 -15.4141 -17.3459
LeftUpLeg  22.5204 5.7235 3.92958
LeftLeg  34.1118 -4.72902 -3.05564
LeftFoot  -9.35151 0.157063 -5.62435
LeftToes  1.06246e-005 4.65856e-005 -8.18501e-006
369
root  -9.79377 37.4563 -10.8306 165.362 -61.3931 -172.922
RightUpLeg  -24.7975 -14.7607 4.05227
RightLeg  28.2412 -0.99378 -0.821997
RightFoot  4.34645 0.612636 -4.24471
RightToes  0.00048216 0.542163 -0.142577
Spine  10.9992 -4.18044 13.4134
Spine1  12.9051 -1.78624 -3.32026
HEad  3.84209 16.4433 -11.6736
LeftShoulder1  9.28234 -13.6212 -47.3054
LeftArm  -10.0278 17.7763 -23.829
LeftForeArm  56.5625 -78.5419 -67.299
LeftHand  -0.25398 0.0180481 5.50724
RightShoulder  4.80488 8.9309 32.7
RightArm  -10.253 -27.6308 20.8038
RightForeArm  36.4344 77.0468 106.254
RightHand  1.39748 -14.5486 -18.1999
LeftUpLeg  14.7046 4.7914 6.34377
LeftLeg  46.9109 -2.33436 -2.17854
LeftFoot  4.72295 0.939935 -6.94067
LeftToes  1.06246e-005 4.65856e-005 -8.18501e-006
370
root  -10.8656 37.3897 -11.6866 161.127 -64.7335 -167.813
RightUpLeg  -24.6079 -17.088 5.1216
RightLeg  32.3197 -2.34803 -1.85272
RightFoot  -0.360581 0.464928 -4.81201
RightToes  0.00048216 0.542163 -0.142577
Spine  11.7919 -4.86055 14.9211
Spine1  13.1755 -2.41132 -1.40358
HEad  3.51162 14.7261 -11.3626
LeftShoulder1  9.42934 -13.7861 -47.6022
LeftArm  -9.69893 17.0089 -23.7106
LeftForeArm  53.1026 -78.221 -63.6676
LeftHand  -0.25398 0.0180481 5.50724
RightShoulder  4.82682 8.98943 32.6944
RightArm  -10.0205 -26.7111 20.3134
RightForeArm  31.7215 77.2565 102.342
RightHand  1.35251 -13.8384 -19.0456
LeftUpLeg  5.53174 2.74678 8.38812
LeftLeg  58.9213 0.262541 1.04145
LeftFoot  14.441 1.44449 -6.73069
LeftToes  1.06246e-005 4.65856e-005 -8.18501e-006
